<svg version="1.1" xmlns="http://www.w3.org/2000/svg" width="768" height="768" viewBox="0 0 768 768">
<path fill="#f07" d="M297.977 366.385q0-58.375-5.669-78.213-5.669-20.404-22.103-20.404t-29.472 21.537q-13.035 20.968-13.035 56.676v103.717q0 24.369 9.635 41.372t28.339 17.003 25.505-24.938 6.799-87.278zM226.567 249.066v44.773q22.103-50.443 78.213-50.443 48.741 0 75.378 35.139 27.204 35.139 27.204 106.552t-29.472 105.416q-28.903 34.006-87.278 34.006-27.204 0-40.806-6.8t-22.103-20.968v146.788h73.11v10.201h-209.7v-10.201h31.172v-384.262h-30.038v-10.201z"></path>
<path fill="#f07" d="M460.953 524.512v-101.449h6.8q14.734 49.307 39.673 69.145t62.345 19.838q57.812 0 57.812-36.838 0-15.87-14.168-23.803-22.103-12.469-56.676-19.269-38.537-10.201-64.611-27.204-31.171-20.404-31.171-64.611t27.204-70.28q27.204-26.638 72.546-26.638 27.772 0 57.242 13.035 10.77 4.534 16.434 4.534t9.635-3.97 9.635-14.735h6.233v86.714h-6.799q-28.903-73.678-89.549-73.678-26.638 0-39.673 9.635-13.035 9.068-13.035 23.239 0 8.499 3.97 13.604 3.97 4.534 6.233 6.799t7.369 5.1q5.1 2.266 8.499 3.97 3.401 1.136 10.201 3.401 7.369 2.266 10.77 2.835 38.537 9.635 55.54 17.003 17.003 6.799 32.307 17.003 31.172 21.537 31.172 69.711 0 47.608-28.339 72.546-28.339 24.369-77.644 24.369-35.139 0-68.009-16.434-6.8-4.534-10.77-4.534-12.469 0-24.369 20.968z"></path>
</svg>
