<svg version="1.1" xmlns="http://www.w3.org/2000/svg" width="3520" height="768" viewBox="0 0 3520 768">
  <path fill="#fff" d="M400.887 223.727c-26.491-15.23-56.296-23.185-88.745-23.185-47.685 0-82.786 13.908-105.971 41.724v-35.759h-119.876v487.444h125.834v-160.271c24.508 25.166 57.62 37.749 100.003 37.749 32.453 0 62.256-7.292 88.745-22.517s47.685-37.089 63.58-64.903c15.894-27.819 23.843-60.931 23.843-98.016s-7.949-69.538-23.843-97.358c-15.894-27.819-37.089-49.672-63.58-64.903zM339.96 448.9c-14.572 15.23-32.453 22.517-54.31 22.517-22.517 0-40.402-7.291-54.31-22.517-14.572-15.23-21.195-36.426-21.195-62.92s6.623-47.027 21.195-62.256c13.908-15.23 31.788-23.185 54.31-23.185 21.854 0 39.738 7.949 54.31 23.185 13.908 15.23 21.195 35.759 21.195 62.256s-7.291 47.685-21.195 62.92z"></path>
  <path fill="#fff" d="M911.722 417.776c1.325-19.865 1.988-29.802 1.988-31.125 0-38.412-8.605-71.527-25.83-99.344s-39.738-49.672-68.878-64.243c-29.142-14.572-61.591-22.517-97.357-22.517-37.749 0-71.527 7.949-101.329 23.843-30.466 15.894-53.644 38.412-70.861 66.227s-25.166 59.602-25.166 94.709c0 35.759 8.605 68.214 25.83 96.033 17.218 28.477 42.385 50.338 74.181 66.227s68.214 23.843 110.605 23.843c66.892 0 117.887-19.205 152.989-58.279l-66.226-68.878c-13.247 11.261-25.83 19.205-38.412 23.843-12.583 5.3-27.155 7.291-44.374 7.291-23.186 0-42.385-4.636-57.62-14.572s-25.166-24.508-30.466-43.049zM673.292 306.512c13.247-10.596 29.142-16.559 49.008-16.559 19.205 0 35.099 5.958 48.341 16.559 13.247 11.261 21.195 26.491 25.166 45.036h-147.031c3.311-18.542 11.26-33.777 24.508-45.036z"></path>
  <path fill="#fff" d="M1220.068 550.894l-31.125-88.086c-11.261 7.949-23.843 11.26-38.412 11.26-11.925 0-21.195-3.311-27.819-10.596s-9.936-17.218-9.936-30.466v-119.212h82.12v-94.046h-82.12v-93.382h-125.834v93.382h-52.32v94.046h52.32v120.536c0 45.697 12.583 80.138 37.749 102.651 25.166 23.186 60.931 34.444 107.951 34.444 17.219 0 33.114-1.324 48.341-5.299 15.23-3.311 28.477-8.605 39.080-15.23z"></path>
  <path fill="#fff" d="M1637.576 573.412l67.555-77.486-49.008-43.708c19.864-30.466 33.777-65.566 43.049-105.305l-101.329-30.466c-5.299 25.166-11.925 47.026-20.53 66.226l-67.555-60.268c29.142-15.894 50.998-33.777 64.903-52.32s21.195-39.738 21.195-63.58c0-33.777-13.247-60.932-39.738-80.798s-60.931-30.466-103.316-30.466c-31.125 0-58.279 5.3-82.12 15.23s-41.724 23.843-54.31 41.724c-13.247 18.542-19.205 39.079-19.205 62.256 0 32.453 14.572 63.58 44.374 93.382-33.777 18.542-58.279 38.412-73.516 60.268-15.894 21.854-23.185 47.026-23.185 76.162 0 25.166 7.949 47.026 23.843 66.892s37.749 35.759 66.226 47.027c27.819 11.26 59.602 16.559 94.709 16.559 29.142 0 56.957-3.971 83.449-11.925s50.339-19.865 72.191-35.759zM1422.331 187.96c7.291-6.623 17.218-9.936 30.466-9.936 11.925 0 20.53 3.311 27.154 8.605s9.936 13.247 9.936 22.517c0 9.272-3.971 17.883-11.261 25.83s-19.864 16.559-37.089 25.83c-11.925-10.596-19.865-19.865-23.843-26.491s-5.958-13.908-5.958-21.854c0-9.936 3.311-17.883 10.596-24.508zM1509.752 459.494c-21.854 13.247-45.697 19.205-70.861 19.205-21.854 0-39.080-3.97-51.661-13.247-13.247-9.271-19.205-20.53-19.205-35.099 0-11.925 3.311-22.517 9.936-31.788s17.219-18.542 31.788-27.819z"></path>
  <path fill="#fff" d="M1804.441 561.494c29.142 6.623 58.279 9.936 88.745 9.936 37.089 0 69.538-4.636 96.033-15.23 26.491-9.936 47.027-23.843 60.932-41.724 13.247-17.883 20.53-38.412 20.53-60.932 0-27.154-7.292-48.341-21.854-63.58s-31.125-25.83-50.338-31.788c-19.864-5.3-44.374-10.596-73.516-15.23-23.843-3.311-40.402-6.622-50.339-9.936-10.596-3.311-15.23-9.272-15.23-17.883 0-7.291 4.636-13.247 13.908-17.883s23.843-7.291 43.708-7.291c37.089 0 71.527 9.272 103.316 26.491l37.749-85.432c-17.218-9.272-39.079-17.218-64.243-22.517-25.83-5.299-51.661-7.949-77.486-7.949-37.089 0-68.214 5.299-94.709 15.894s-46.36 24.508-59.602 42.385c-13.908 17.883-20.53 38.412-20.53 60.932 0 27.819 7.292 49.672 21.854 64.903 14.572 15.894 31.788 26.491 51.661 31.788 19.865 5.958 44.374 10.596 73.517 13.908 22.517 3.311 38.412 6.623 49.008 9.936s15.894 8.605 15.894 16.559c0 7.949-4.636 14.572-13.247 18.542s-23.186 5.958-43.049 5.958c-22.517 0-44.374-2.647-66.892-8.605s-42.385-13.908-58.279-24.508l-37.749 86.099c17.219 11.26 41.063 20.53 70.204 27.154z"></path>
  <path fill="#fff" d="M2465.982 240.282c-27.155-26.491-62.92-39.738-107.293-39.738-21.195 0-41.063 3.311-59.602 9.936s-35.099 16.559-48.341 29.142v-165.572h-125.834v491.423h125.834v-173.519c0-27.819 5.958-49.008 19.205-63.58 13.247-13.908 30.466-21.195 52.32-21.195 39.080 0 58.945 24.508 58.945 73.517v184.778h125.834v-205.308c0-52.983-13.908-93.382-41.063-119.876z"></path>
  <path fill="#fff" d="M2666.741 547.583c30.466 15.894 65.566 23.843 103.982 23.843s73.517-7.949 104.64-23.843c30.466-15.894 54.966-37.749 72.19-66.227 17.218-27.819 25.83-60.268 25.83-96.033s-8.605-67.555-25.83-95.369c-17.218-27.819-41.724-49.672-72.19-65.566-31.125-15.894-66.227-23.843-104.64-23.843-39.079 0-74.181 7.949-104.64 23.843s-54.966 37.749-72.191 65.566c-17.218 28.477-25.83 60.268-25.83 95.369 0 35.759 8.605 68.214 25.83 96.033 17.219 28.477 41.724 50.339 72.851 66.227zM2825.025 448.9c-14.572 15.23-32.453 22.517-54.31 22.517-22.517 0-40.402-7.291-54.31-22.517-14.572-15.23-21.195-36.426-21.195-63.58 0-26.491 6.622-47.026 21.195-62.256 13.908-14.572 31.788-22.517 54.31-22.517 21.854 0 39.738 7.949 54.31 22.517 13.908 15.23 21.195 35.759 21.195 62.256 0 27.154-7.292 48.341-21.195 63.58z"></path>
  <path fill="#fff" d="M3346.256 223.727c-26.491-15.23-56.296-23.185-88.745-23.185-47.685 0-82.786 13.908-105.971 41.724v-35.759h-119.876v487.444h125.834v-160.271c24.508 25.166 57.62 37.749 100.003 37.749 32.453 0 62.256-7.292 88.745-22.517s47.685-37.089 63.58-64.903c15.894-27.819 23.843-60.931 23.843-98.016s-7.949-69.538-23.843-97.358c-15.894-27.819-37.089-49.672-63.58-64.903zM3285.326 448.9c-14.572 15.23-32.453 22.517-54.31 22.517-22.517 0-40.402-7.291-54.31-22.517-14.572-15.23-21.195-36.426-21.195-62.92s6.623-47.027 21.195-62.256c13.908-15.23 31.788-23.185 54.31-23.185 21.854 0 39.738 7.949 54.31 23.185 13.908 15.23 21.195 35.759 21.195 62.256s-7.292 47.685-21.195 62.92z"></path>
</svg>
