<svg width="22" height="22" viewBox="0 0 22 22" xmlns="http://www.w3.org/2000/svg">
  <path d="M4.48203 3.4987C3.93895 3.4987 3.4987 3.93895 3.4987 4.48203V17.5154C3.4987 18.0584 3.93895 18.4987 4.48203 18.4987H17.5154C18.0584 18.4987 18.4987 18.0584 18.4987 17.5154V4.48203C18.4987 3.93895 18.0584 3.4987 17.5154 3.4987H4.48203ZM1.83203 4.48203C1.83203 3.01848 3.01848 1.83203 4.48203 1.83203H17.5154C18.9789 1.83203 20.1654 3.01848 20.1654 4.48203V17.5154C20.1654 18.9789 18.9789 20.1654 17.5154 20.1654H4.48203C3.01848 20.1654 1.83203 18.9789 1.83203 17.5154V4.48203Z" />
  <path d="M6.83333 1.83203C7.29357 1.83203 7.66667 2.20513 7.66667 2.66536V19.332C7.66667 19.7923 7.29357 20.1654 6.83333 20.1654C6.3731 20.1654 6 19.7923 6 19.332V2.66536C6 2.20513 6.3731 1.83203 6.83333 1.83203Z" />
  <path d="M15.1654 1.83203C15.6256 1.83203 15.9987 2.20513 15.9987 2.66536V19.332C15.9987 19.7923 15.6256 20.1654 15.1654 20.1654C14.7051 20.1654 14.332 19.7923 14.332 19.332V2.66536C14.332 2.20513 14.7051 1.83203 15.1654 1.83203Z" />
  <path d="M1.83203 10.9974C1.83203 10.5372 2.20513 10.1641 2.66536 10.1641H19.332C19.7923 10.1641 20.1654 10.5372 20.1654 10.9974C20.1654 11.4576 19.7923 11.8307 19.332 11.8307H2.66536C2.20513 11.8307 1.83203 11.4576 1.83203 10.9974Z" />
  <path d="M1.83203 6.83333C1.83203 6.3731 2.20513 6 2.66536 6H6.83203C7.29227 6 7.66536 6.3731 7.66536 6.83333C7.66536 7.29357 7.29227 7.66667 6.83203 7.66667H2.66536C2.20513 7.66667 1.83203 7.29357 1.83203 6.83333Z" />
  <path d="M1.83203 15.1654C1.83203 14.7051 2.20513 14.332 2.66536 14.332H6.83203C7.29227 14.332 7.66536 14.7051 7.66536 15.1654C7.66536 15.6256 7.29227 15.9987 6.83203 15.9987H2.66536C2.20513 15.9987 1.83203 15.6256 1.83203 15.1654Z" />
  <path d="M14.332 15.1654C14.332 14.7051 14.7051 14.332 15.1654 14.332H19.332C19.7923 14.332 20.1654 14.7051 20.1654 15.1654C20.1654 15.6256 19.7923 15.9987 19.332 15.9987H15.1654C14.7051 15.9987 14.332 15.6256 14.332 15.1654Z" />
  <path d="M14.332 6.83333C14.332 6.3731 14.7051 6 15.1654 6H19.332C19.7923 6 20.1654 6.3731 20.1654 6.83333C20.1654 7.29357 19.7923 7.66667 19.332 7.66667H15.1654C14.7051 7.66667 14.332 7.29357 14.332 6.83333Z" />
</svg>
