<svg width="22" height="22" viewBox="0 0 22 22" xmlns="http://www.w3.org/2000/svg">
  <path d="M4.33203 7.66667C3.87179 7.66667 3.4987 8.03976 3.4987 8.5V17.6667C3.4987 18.1269 3.87179 18.5 4.33203 18.5H17.6654C18.1256 18.5 18.4987 18.1269 18.4987 17.6667V8.5C18.4987 8.03976 18.1256 7.66667 17.6654 7.66667H4.33203ZM1.83203 8.5C1.83203 7.11929 2.95132 6 4.33203 6H17.6654C19.0461 6 20.1654 7.11929 20.1654 8.5V17.6667C20.1654 19.0474 19.0461 20.1667 17.6654 20.1667H4.33203C2.95132 20.1667 1.83203 19.0474 1.83203 17.6667V8.5Z" />
  <path d="M6.24408 2.07611C6.56951 1.75067 7.09715 1.75067 7.42259 2.07611L11 5.65352L14.5774 2.07611C14.9028 1.75067 15.4305 1.75067 15.7559 2.07611C16.0814 2.40155 16.0814 2.92918 15.7559 3.25462L11.5893 7.42129C11.2638 7.74672 10.7362 7.74672 10.4107 7.42129L6.24408 3.25462C5.91864 2.92918 5.91864 2.40155 6.24408 2.07611Z" />
  <path d="M9.00911 16.1669C8.86745 16.1669 8.71745 16.1336 8.59245 16.0503C8.33411 15.9003 8.17578 15.6253 8.17578 15.3336V10.8253C8.17578 10.5253 8.33411 10.2503 8.59245 10.1086C8.85078 9.95859 9.16745 9.95859 9.42578 10.1086L13.3924 12.3669C13.6508 12.5169 13.8174 12.7919 13.8174 13.0919C13.8174 13.3919 13.6591 13.6669 13.3924 13.8169L9.42578 16.0753C9.29245 16.1253 9.15078 16.1669 9.00911 16.1669ZM9.30911 11.3086V14.8419L12.4091 13.0753L9.30911 11.3086Z" />
</svg>
